<?xml version="1.0" encoding="UTF-8"?>
<svg id="Layer_2" xmlns="http://www.w3.org/2000/svg" viewBox="0 0 951.38 137.45">
  <g id="Layer_1-2" data-name="Layer_1">
    <g>
      <g>
        <path d="M77.19,65.44c.26-6.4-1.47-11.17-5.2-14.3-3.74-3.13-8.8-4.7-15.2-4.7-5.73,0-10.73,1.47-15,4.4-4.27,2.94-7.8,6.67-10.6,11.2-2.8,4.54-4.9,9.5-6.3,14.9-1.4,5.4-2.1,10.57-2.1,15.5,0,3.87.4,7.43,1.2,10.7.8,3.27,2.1,6.1,3.9,8.5,1.8,2.4,4.17,4.3,7.1,5.7,2.93,1.4,6.53,2.1,10.8,2.1,6.8,0,12.36-1.8,16.7-5.41,4.33-3.6,7.43-8.6,9.3-15h22.8c-3.73,13.33-9.99,23.07-18.79,29.2-8.8,6.14-20.07,9.2-33.8,9.21-6.8,0-12.8-1.06-18-3.19-5.2-2.13-9.57-5.16-13.1-9.1-3.54-3.93-6.24-8.6-8.1-14C.93,105.76,0,99.79,0,93.26c0-8.67,1.33-16.93,3.99-24.8,2.66-7.87,6.53-14.77,11.59-20.7,5.06-5.93,11.23-10.63,18.5-14.11,7.26-3.47,15.5-5.2,24.7-5.21,5.73,0,11.13.8,16.2,2.4,5.07,1.6,9.47,3.93,13.2,7,3.73,3.07,6.67,6.93,8.8,11.6,2.13,4.67,3.13,10,3,16h-22.8Z"/>
        <path d="M156.41,137.42c-14.4,0-25.54-3.89-33.4-11.69-7.87-7.8-11.81-18.96-11.81-33.5,0-8.53,1.4-16.63,4.19-24.3,2.8-7.67,6.76-14.43,11.89-20.3,5.13-5.87,11.33-10.53,18.6-14.01,7.26-3.47,15.36-5.2,24.3-5.21,14.4,0,25.53,3.76,33.4,11.29,7.87,7.53,11.81,18.57,11.81,33.1,0,9.07-1.33,17.53-3.99,25.4-2.67,7.87-6.56,14.7-11.69,20.5-5.13,5.8-11.33,10.37-18.6,13.7-7.27,3.33-15.5,5-24.7,5.01ZM168.79,46.41c-5.87,0-10.97,1.47-15.3,4.4-4.33,2.94-7.97,6.64-10.9,11.1-2.93,4.47-5.1,9.44-6.5,14.9-1.4,5.47-2.1,10.8-2.1,16,0,7.6,1.9,13.93,5.7,19,3.8,5.07,9.83,7.6,18.1,7.59,5.87,0,10.97-1.43,15.3-4.3,4.33-2.87,7.96-6.53,10.9-11,2.93-4.47,5.1-9.47,6.5-15,1.4-5.53,2.1-10.9,2.1-16.1,0-7.6-1.9-13.93-5.7-19-3.8-5.06-9.84-7.6-18.1-7.6Z"/>
        <path d="M247.58,31.19h21.6s-3,14.59-3,14.59l.4.4c4.26-5.6,9.43-9.97,15.5-13.1,6.06-3.13,12.7-4.7,19.9-4.71,6.4,0,12,1.37,16.8,4.1,4.8,2.73,7.93,7.5,9.4,14.3,4.66-5.33,9.86-9.73,15.6-13.2,5.73-3.47,12.2-5.2,19.4-5.21,10,0,17.4,2.46,22.2,7.39,4.8,4.93,7.2,11.6,7.21,20,0,1.87-.17,4-.5,6.4-.33,2.4-.7,4.53-1.1,6.4l-13.18,66h-22.8s12.78-61.2,12.78-61.2c.27-1.2.63-2.9,1.1-5.1.47-2.2.76-4.57.9-7.1,0-1.73-.17-3.5-.5-5.3-.34-1.8-1.04-3.4-2.1-4.8-1.07-1.4-2.53-2.53-4.4-3.4-1.87-.87-4.27-1.3-7.2-1.3-4.4,0-8.3.9-11.7,2.7s-6.33,4.07-8.8,6.8c-2.47,2.74-4.47,5.74-6,9-1.53,3.27-2.57,6.37-3.1,9.3l-12.58,60.4h-22.8s11.78-56.8,11.78-56.8c.53-2.67,1.16-5.67,1.9-9,.73-3.33,1.1-6.53,1.1-9.6,0-3.47-.9-6.47-2.7-9-1.8-2.53-5.1-3.8-9.9-3.8-4.4,0-8.17.8-11.3,2.4-3.13,1.6-5.83,3.54-8.1,5.8s-4.6,5.17-7,8.7c-2.4,3.53-4.07,7.37-5,11.5l-12.38,59.8h-22.8s21.37-103.4,21.37-103.4Z"/>
        <path d="M425.38,31.14h21.6s-3,14.59-3,14.59l.4.4c4.26-5.6,9.43-9.97,15.5-13.1,6.06-3.13,12.7-4.7,19.9-4.71,6.4,0,12,1.37,16.8,4.1,4.8,2.73,7.93,7.5,9.4,14.3,4.66-5.33,9.86-9.73,15.6-13.2,5.73-3.47,12.2-5.2,19.4-5.21,10,0,17.4,2.46,22.2,7.39,4.8,4.93,7.2,11.6,7.21,20,0,1.87-.17,4-.5,6.4-.33,2.4-.7,4.53-1.1,6.4l-13.18,66h-22.8s12.78-61.2,12.78-61.2c.27-1.2.63-2.9,1.1-5.1.47-2.2.76-4.57.9-7.1,0-1.73-.17-3.5-.5-5.3-.34-1.8-1.04-3.4-2.1-4.8-1.07-1.4-2.53-2.53-4.4-3.4-1.87-.87-4.27-1.3-7.2-1.3-4.4,0-8.3.9-11.7,2.7s-6.33,4.07-8.8,6.8c-2.47,2.74-4.47,5.74-6,9-1.53,3.27-2.57,6.37-3.1,9.3l-12.58,60.4h-22.8s11.78-56.8,11.78-56.8c.53-2.67,1.16-5.67,1.9-9,.73-3.33,1.1-6.53,1.1-9.6,0-3.47-.9-6.47-2.7-9-1.8-2.53-5.1-3.8-9.9-3.8-4.4,0-8.17.8-11.3,2.4-3.13,1.6-5.83,3.54-8.1,5.8s-4.6,5.17-7,8.7c-2.4,3.53-4.07,7.37-5,11.5l-12.38,59.8h-22.8s21.37-103.4,21.37-103.4Z"/>
        <path d="M591.39,69.3l77.2-.02-4.19,21.6-77.2.02,4.19-21.6Z"/>
        <path d="M861.6,104.42c-.4,1.87-.83,3.67-1.3,5.4-.47,1.73-.7,3.34-.7,4.8s.33,2.6,1,3.4c.67.8,1.93,1.2,3.8,1.2,1.33,0,2.66-.17,4-.5,1.33-.33,2.66-.57,4-.7l-3.6,16.4c-2.93.67-5.87,1.3-8.8,1.9-2.93.6-5.93.9-9,.9-3.87,0-7.07-1.2-9.6-3.6-2.54-2.4-3.94-5.6-4.2-9.6-4.53,4.53-9.87,7.87-16,10-6.13,2.13-12.4,3.2-18.8,3.2-4.27,0-8.34-.6-12.2-1.8-3.87-1.2-7.3-2.93-10.3-5.2-3-2.26-5.37-5.13-7.1-8.6-1.73-3.47-2.6-7.47-2.6-12,0-6.4,1.2-11.77,3.6-16.1,2.4-4.33,5.6-7.9,9.6-10.7,4-2.8,8.6-4.87,13.8-6.2,5.2-1.33,10.66-2.2,16.4-2.6,7.73-.53,15.33-1.14,22.8-1.81,4.13-.27,7.16-1.63,9.1-4.1,1.93-2.47,2.9-5.63,2.9-9.5,0-4.93-1.74-8.23-5.2-9.9-3.47-1.66-7.53-2.5-12.2-2.5-6.4,0-11.9,1.1-16.5,3.3-4.6,2.2-7.7,6.5-9.3,12.9h-21.6c1.2-6.39,3.26-11.76,6.2-16.1,2.93-4.33,6.53-7.87,10.8-10.6,4.26-2.73,9.1-4.67,14.5-5.8,5.4-1.13,11.17-1.7,17.3-1.7,9.33,0,16.63.9,21.9,2.69,5.27,1.8,9.13,3.97,11.6,6.5,2.47,2.53,3.97,5.17,4.5,7.9.53,2.73.8,5.03.8,6.9,0,4.53-.67,9.73-2,15.6l-7.59,36.6ZM793,106.04c0,2.53.57,4.63,1.7,6.3,1.13,1.67,2.57,3,4.3,4,1.73,1,3.67,1.73,5.8,2.2,2.13.47,4.27.7,6.4.7,5.6,0,10.3-.93,14.1-2.8,3.8-1.87,6.93-4.4,9.4-7.6,2.46-3.2,4.4-6.97,5.8-11.3,1.4-4.33,2.5-8.97,3.3-13.9l-.4-.4c-1.6,1.6-3.73,2.74-6.4,3.4-2.67.67-5.27,1.14-7.8,1.4-3.2.27-6.9.54-11.1.8-4.2.27-8.13.97-11.8,2.1-3.67,1.13-6.8,2.87-9.4,5.2-2.6,2.33-3.9,5.64-3.9,9.9Z"/>
        <path d="M914.97,0h22.2s-6.39,31-6.39,31h20.6s-3.6,17-3.6,17h-20.6s-10.59,50.61-10.59,50.61c-.53,2.27-1,4.4-1.4,6.4s-.6,3.6-.6,4.8c0,2.27.5,4.1,1.5,5.5,1,1.4,3.23,2.1,6.7,2.1,1.73,0,3.63-.03,5.7-.1,2.07-.07,4.23-.37,6.5-.9l-3.8,16.8c-2.93.67-6.07,1.2-9.4,1.6-3.33.4-6.47.6-9.4.6-4.13,0-7.53-.53-10.2-1.6-2.67-1.06-4.77-2.5-6.3-4.3-1.53-1.8-2.6-3.87-3.2-6.2-.6-2.33-.9-4.7-.9-7.1,0-2,.16-4.2.5-6.6.33-2.4.63-4.07.9-5l11.78-56.6h-18s3.6-17,3.6-17h18S914.97,0,914.97,0Z"/>
      </g>
      <path d="M753.31,119.33c-9.73,0-43.1,0-43.12,0-8.8,0-15.1-2.2-18.9-6.6s-5.7-10.2-5.7-17.4v-3.2c0-.53.03-1.07.1-1.6.07-.53.17-1.13.3-1.8h73.54l3.05-15h-74.39c2.27-8,5.93-14.57,11-19.7,5.07-5.13,11.87-7.7,20.4-7.7.48,0,36.68.02,48.54.05l3.66-18.03c-11.62,0-51.29-.02-51.6-.02-9.2,0-17.37,1.83-24.5,5.5-7.13,3.67-13.13,8.5-18,14.5-4.87,6-8.57,12.8-11.1,20.4-2.53,7.6-3.8,15.4-3.8,23.4,0,7.07,1.13,13.37,3.4,18.9,2.27,5.53,5.4,10.27,9.4,14.2,4,3.93,8.77,6.93,14.3,9,5.53,2.07,11.57,3.1,18.1,3.1.64,0,31.54,0,41.67-.02l3.65-17.98Z"/>
    </g>
  </g>
</svg>