<?xml version="1.0" encoding="utf-8"?>
<!-- Generator: Adobe Illustrator 28.0.0, SVG Export Plug-In . SVG Version: 6.00 Build 0)  -->
<svg version="1.1" id="Ebene_1" xmlns="http://www.w3.org/2000/svg" xmlns:xlink="http://www.w3.org/1999/xlink" x="0px" y="0px"
	 viewBox="0 0 30 30" style="enable-background:new 0 0 30 30;" xml:space="preserve">
<style type="text/css">
	.st0{fill:#2D2D2D;}
</style>
<g>
	<path class="st0" d="M11.3,7H7v4.3C7,8.9,8.9,7,11.3,7z"/>
	<path class="st0" d="M15,0C6.7,0,0,6.7,0,15c0,8.3,6.7,15,15,15c8.3,0,15-6.7,15-15C30,6.7,23.3,0,15,0z M23,11.3v7.3V23h-4.3h-7.3
		H7v-4.3v-7.3V7h4.3h7.3H23V11.3z"/>
	<path class="st0" d="M7,18.7V23h4.3C8.9,23,7,21.1,7,18.7z"/>
	<path class="st0" d="M18.7,23H23v-4.3C23,21.1,21.1,23,18.7,23z"/>
	<path class="st0" d="M23,11.3V7h-4.3C21.1,7,23,8.9,23,11.3z"/>
	<path class="st0" d="M15,10.6c-2.4,0-4.4,2-4.4,4.4c0,2.4,2,4.4,4.4,4.4c2.4,0,4.4-2,4.4-4.4C19.4,12.6,17.4,10.6,15,10.6z
		 M15,18.4c-1.9,0-3.4-1.5-3.4-3.4c0-1.9,1.5-3.4,3.4-3.4s3.4,1.5,3.4,3.4C18.4,16.9,16.9,18.4,15,18.4z"/>
	<path class="st0" d="M19.5,9.1c-0.7,0-1.3,0.6-1.3,1.3c0,0.7,0.6,1.3,1.3,1.3s1.3-0.6,1.3-1.3C20.8,9.7,20.2,9.1,19.5,9.1z
		 M19.5,10.7c-0.2,0-0.4-0.2-0.4-0.4c0-0.2,0.2-0.4,0.4-0.4c0.2,0,0.4,0.2,0.4,0.4C19.8,10.6,19.7,10.7,19.5,10.7z"/>
</g>
</svg>
